<svg
  xmlns="http://www.w3.org/2000/svg"
  width="131"
  height="108"
  fill="none"
  viewBox="0 0 131 108"
  id="svg-section-2"
  >
  <path 
    className="stroke-line-2"
    stroke="#fff" 
    strokeWidth="0.2" 
    d="M130 89L18 5.5"
  ></path>
  <path
    className="stroke-line-2"
    stroke="#fff"
    strokeMiterlimit="10"
    strokeWidth="0.2"
    d="M20 41.4C25.7 18.9 46.1 2.3 70.4 2.3c28.7 0 51.9 23.3 51.9 51.9 0 28.6-23.3 51.9-51.9 51.9-23 0-42.6-15-49.4-35.7"
  ></path>
  <path
    className="stroke-line-2"
    stroke="#fff"
    strokeMiterlimit="10"
    strokeWidth="0.2"
    d="M18.5 53c1.1-17.8 15.9-32 34-32 18.8 0 34.1 15.2 34.1 34.1 0 18.9-15.3 34-34.1 34-18.2 0-33-14.2-34-32.2"
  ></path>
  <path
    className="stroke-line-2"
    fill="#fff"
    d="M80.4 38.1a2.3 2.3 0 100-4.6 2.3 2.3 0 000 4.6zM67.8 4.6a2.3 2.3 0 100-4.6 2.3 2.3 0 000 4.6zM54.1 91.4a2.3 2.3 0 100-4.6 2.3 2.3 0 000 4.6zM116.2 80.9a2.3 2.3 0 100-4.6 2.3 2.3 0 000 4.6z"
  ></path>

  <circle cx="18" cy="57" r="18" fill="url(#paint0_linear)"></circle>
  <circle
    cx="17.474"
    cy="5.474"
    r="2.474"
    fill="url(#paint1_linear)"
    transform="rotate(-180 17.474 5.474)"
  ></circle>
  <circle
    cx="82.215"
    cy="104.379"
    r="2.89"
    fill="url(#paint2_linear)"
    transform="rotate(170.236 82.215 104.379)"
  ></circle>
  <defs>
  <linearGradient
    id="paint0_linear"
    x1="4.829"
    x2="31.61"
    y1="45.585"
    y2="71.049"
    gradientUnits="userSpaceOnUse"
  >
    <stop stopColor="#BF2296"></stop>
    <stop offset="1" stopColor="#F64729"></stop>
  </linearGradient>
  <linearGradient
    id="paint1_linear"
    x1="15.664"
    x2="19.344"
    y1="3.905"
    y2="7.404"
    gradientUnits="userSpaceOnUse"
  >
    <stop stopColor="#BF2296"></stop>
    <stop offset="1" stopColor="#F64729"></stop>
  </linearGradient>
  <linearGradient
    id="paint2_linear"
    x1="80.1"
    x2="84.4"
    y1="102.547"
    y2="106.635"
    gradientUnits="userSpaceOnUse"
  >
    <stop stopColor="#BF2296"></stop>
    <stop offset="1" stopColor="#F64729"></stop>
  </linearGradient>
  </defs>
</svg>