<svg
      xmlns="http://www.w3.org/2000/svg"
      width="68"
      height="68"
      fill="none"
      viewBox="0 0 68 68"
    >
      <g clip-path="url(#clip0)">
        <path
          fill="#fff"
          d="M66.586 46.73l-.375-.347.87-3.668c2.397-10.174.054-20.709-6.425-28.901C54.164 5.62 44.459.923 34.004.923c-10.455 0-20.16 4.698-26.652 12.89C.859 22.007-1.483 32.542.926 42.716l.87 3.668-.374.348a3.262 3.262 0 00-1.044 3.68l4.15 11.406c.481 1.325 1.753 2.182 3.078 2.155l3.655.188c1.057 1.914 3.587 3.668 6.68 2.583 4.069-1.419 3.76-5.622 3.266-7l-6.72-18.46c-.777-2.156-3.641-4.471-7.001-3.267-2.584.924-4.003 3.641-3.454 6.265l-.402.375-.575-2.45c-2.25-9.518-.054-19.37 6.01-27.04C15.13 7.509 24.218 3.105 34.004 3.105c9.785 0 18.875 4.404 24.939 12.06 6.064 7.671 8.259 17.523 6.01 27.041l-.576 2.45-.401-.375c.562-2.624-.857-5.328-3.454-6.265-3.36-1.204-6.211 1.111-7.001 3.267l-6.72 18.46c-.495 1.365-.803 5.568 3.266 7 3.093 1.085 5.623-.656 6.68-2.583l3.655-.188c1.325.027 2.596-.83 3.078-2.155l4.15-11.405a3.262 3.262 0 00-1.044-3.681zM8.222 40.079c1.887-.696 3.721.669 4.203 1.954l6.72 18.46c.295.816.71 3.24-1.954 4.203-1.674.603-3.601-.308-4.204-1.954l-6.72-18.473c-.615-1.687.268-3.561 1.955-4.19zM2.84 48.39l1.94-1.82 5.596 15.367-2.744-.148c-.482 0-.897-.28-1.058-.723l-4.15-11.405c-.16-.428-.026-.923.416-1.271zm52.18 14.35c-.603 1.646-2.53 2.556-4.204 1.954-2.677-.964-2.262-3.373-1.954-4.203l6.72-18.46c.468-1.285 2.302-2.65 4.203-1.954 1.7.629 2.57 2.503 1.954 4.203l-6.72 18.46zm10.561-13.065l-4.15 11.405c-.16.441-.575.71-1.057.723l-2.744.147 5.595-15.368 1.941 1.821c.442.335.576.816.415 1.272z"
        ></path>
      </g>
      <defs>
        <clipPath id="clip0">
          <path fill="#fff" d="M0 0H68V68H0z"></path>
        </clipPath>
      </defs>
    </svg>