    <svg
      xmlns="http://www.w3.org/2000/svg"
      width="469"
      height="619"
      fill="none"
      viewBox="0 0 469 619"
      id="svg-section-8"
    >
      <path className="stroke-line-draw" stroke="#fff" d="M5 614l460.5-464.5"></path>
      <path
        stroke="#fff"
        strokeMiterlimit="10"
        strokeWidth="0.75"
        d="M341.693 79.347L263.347 1 185 79.347l78.347 78.346 78.346-78.346zM254.885 301.501L58.501 414.883l113.382 196.384 196.384-113.383-113.382-196.383z"
      ></path>
      <circle
        className="bubble-1"
        cx="302.5"
        cy="401.5"
        r="76.5"
        fill="url(#paint0_linear)"
      ></circle>
      <circle
        className="bubble-2"
        cx="164"
        cy="256"
        r="44"
        fill="url(#paint1_linear)"
        transform="rotate(-90 164 256)"
      ></circle>
      <circle
        className="bubble-3"
        cx="392.562"
        cy="219.562"
        r="36.562"
        fill="url(#paint2_linear)"
        transform="rotate(-90 392.562 219.562)"
      ></circle>
      <circle
        className="bubble-4"
        cx="219.978"
        cy="115.978"
        r="27.978"
        fill="url(#paint3_linear)"
        transform="rotate(90 219.978 115.978)"
      ></circle>
      <ellipse
        cx="349"
        cy="23"
        fill="url(#paint4_linear)"
        rx="22"
        ry="22"
        transform="rotate(90 349 23)"
      ></ellipse>
      <circle cx="110.5" cy="506.5" r="9.5" fill="#fff"></circle>
      <circle cx="5" cy="614" r="5" fill="#fff"></circle>
      <circle cx="464" cy="151" r="5" fill="#fff"></circle>
      <circle cx="226.5" cy="580.5" r="9.5" fill="#fff"></circle>
      <defs>
        <linearGradient
          id="paint0_linear"
          x1="302"
          x2="302"
          y1="468.5"
          y2="325"
          gradientUnits="userSpaceOnUse"
        >
          <stop stopColor="#DC1BB3"></stop>
          <stop offset="1" stopColor="#FF5C00"></stop>
        </linearGradient>
        <linearGradient
          id="paint1_linear"
          x1="126.842"
          x2="207.842"
          y1="276.658"
          y2="242.158"
          gradientUnits="userSpaceOnUse"
        >
          <stop stopColor="#84009A"></stop>
          <stop offset="0.51" stopColor="#DC1BB3"></stop>
          <stop offset="1" stopColor="#FF5C00"></stop>
        </linearGradient>
        <linearGradient
          id="paint2_linear"
          x1="415.804"
          x2="367.804"
          y1="191.32"
          y2="246.32"
          gradientUnits="userSpaceOnUse"
        >
          <stop stopColor="#9E62FF"></stop>
          <stop offset="0.771" stopColor="#DC1BB3"></stop>
          <stop offset="1" stopColor="#FF5C00"></stop>
        </linearGradient>
        <linearGradient
          id="paint3_linear"
          x1="192.447"
          x2="241.947"
          y1="97.008"
          y2="138.508"
          gradientUnits="userSpaceOnUse"
        >
          <stop stopColor="#9E62FF"></stop>
          <stop offset="1" stopColor="#DC1BB3"></stop>
        </linearGradient>
        <linearGradient
          id="paint4_linear"
          x1="327.352"
          x2="366.276"
          y1="8.083"
          y2="40.716"
          gradientUnits="userSpaceOnUse"
        >
          <stop stopColor="#F54935"></stop>
          <stop offset="1" stopColor="#DC1BB3"></stop>
        </linearGradient>
      </defs>
    </svg>