<svg
      xmlns="http://www.w3.org/2000/svg"
      width="345"
      height="515"
      fill="none"
      viewBox="0 0 345 515"
      id="svg-section-right-0"
    >
      <path
        stroke="#fff"
        strokeDasharray="5 5"
        strokeMiterlimit="10"
        strokeWidth="0.75"
        d="M285.4 215.4c15.188 0 27.5-12.312 27.5-27.5s-12.312-27.5-27.5-27.5-27.5 12.312-27.5 27.5 12.312 27.5 27.5 27.5z"
      ></path>
      <path
        className="stroke-line-draw"
        stroke="#fff"
        strokeMiterlimit="10"
        strokeWidth="0.7"
        d="M59.9 512.8l209.8-302.3M3 489.6L326.1 24.1"
      ></path>
      <path
        fill="url(#paint0_linear)"
        d="M285.4 173.3c7.069 0 12.8-5.731 12.8-12.8 0-7.069-5.731-12.8-12.8-12.8-7.069 0-12.8 5.731-12.8 12.8 0 7.069 5.731 12.8 12.8 12.8z"
      ></path>
      <path
        stroke="#fff"
        strokeMiterlimit="10"
        strokeWidth="0.75"
        d="M331.8 25.8c6.848 0 12.4-5.552 12.4-12.4 0-6.848-5.552-12.4-12.4-12.4-6.848 0-12.4 5.552-12.4 12.4 0 6.848 5.552 12.4 12.4 12.4z"
      ></path>
      <path
        fill="#fff"
        d="M3 492a3 3 0 100-6 3 3 0 000 6zM59.5 515a1.5 1.5 0 100-3 1.5 1.5 0 000 3z"
      ></path>
      <defs>
        <linearGradient
          id="paint0_linear"
          x1="264.534"
          x2="331.53"
          y1="157.999"
          y2="165.935"
          gradientUnits="userSpaceOnUse"
        >
          <stop stopColor="#F15838"></stop>
          <stop offset="0.557" stopColor="#BA2760"></stop>
          <stop offset="1" stopColor="#414075"></stop>
        </linearGradient>
      </defs>
    </svg>